PathFileType	4	(X/Y/Z)	/Users/niels/Desktop/University/Third Semester/Perception and Action/Exam/Gymnastics Motion Tracking/Code for Gym Tracking/Analyzed Data/Webcam_Backflip/id2001_1_trajectory_Sports2D/id2001_1_trajectory_Sports2D_px_person00.trc
DataRate	CameraRate	NumFrames	NumMarkers	Units	OrigDataRate	OrigDataStartFrame	OrigNumFrames
29.888059701492537	29.888059701492537	8	22	m	29.888059701492537	201	268
Frame#	Time	Hip			RHip			RKnee			RAnkle			RBigToe			RSmallToe			RHeel			LHip			LKnee			LAnkle			LBigToe			LSmallToe			LHeel			Neck			Head			Nose			RShoulder			RElbow			RWrist			LShoulder			LElbow			LWrist		
		X1	Y1	Z1	X2	Y2	Z2	X3	Y3	Z3	X4	Y4	Z4	X5	Y5	Z5	X6	Y6	Z6	X7	Y7	Z7	X8	Y8	Z8	X9	Y9	Z9	X10	Y10	Z10	X11	Y11	Z11	X12	Y12	Z12	X13	Y13	Z13	X14	Y14	Z14	X15	Y15	Z15	X16	Y16	Z16	X17	Y17	Z17	X18	Y18	Z18	X19	Y19	Z19	X20	Y20	Z20	X21	Y21	Z21	X22	Y22	Z22
201	6.725093632958802	0.9907210600903089	-0.7617443087010449	0.0	0.9477666726777109	-0.776391341363794	0.0	0.9299780813444126	-1.06648309436007	0.0	1.1548754887891108	-1.0656489258392208	0.0	1.2012187505767355	-1.0299375000399298	0.0	1.5487108163010512	-0.8729520262649462	0.0	1.3058854987126312	-0.9192044677647575	0.0	1.018968599045797	-0.7841481285802948	0.0	1.0086433289822954	-1.0619348472217496	0.0	0.9316661702894383	-1.0745226300397015	0.0	1.5001344002442465	-0.8515832518396744	0.0	1.4806373299152482	-0.8564575194264584	0.0	0.9010034182301383	-0.9219477538954307	0.0	1.0915166321391536	-0.2660651990916495	0.0	1.173487247501881	-0.07049857672326496	0.0	1.1815599152137597	-0.17735066683436584	0.0	1.0153825487297876	-0.30375721231640823	0.0	0.8844276937179545	-0.5266863185156869	0.0	0.9190809352561143	-0.7752082830933337	0.0	1.1071866580652645	-0.3420642220527549	0.0	1.0668593929055095	-0.5507760569651311	0.0	1.0701790415858456	-0.75894567257653	0.0
202	6.758551810237204	1.0064982770702273	-0.7635194521833572	0.0	0.9647684553311211	-0.7781562937360085	0.0	0.9462743959663071	-1.0672004118939022	0.0	1.1548754885488788	-1.0656489257867148	0.0	1.201218750254229	-1.029937500017627	0.0	1.5487108158138676	-0.8729520263221096	0.0	1.305885498340417	-0.9192044677696072	0.0	1.0321055333382583	-0.7842111678424157	0.0	1.0190895342779742	-1.0629356460875046	0.0	0.9316656185545933	-1.074522713364327	0.0	1.5001343997800913	-0.851583251903104	0.0	1.4806373294603183	-0.8564575194850466	0.0	0.9010034180839318	-0.9219477539014809	0.0	1.0817282048876193	-0.2605905007415105	0.0	1.1576832307364555	-0.06359008239855424	0.0	1.1686107166582138	-0.16984961428760154	0.0	1.0060239096293417	-0.29950829795437095	0.0	0.8756025001698724	-0.5162657327893886	0.0	0.9189400371944771	-0.7596833750817814	0.0	1.1030259730993146	-0.33723622024111516	0.0	1.0717482758549288	-0.5427793499049305	0.0	1.0807010471331933	-0.7459855026622455	0.0
203	6.792009987515606	1.0208091169845972	-0.7634966824076386	0.0	0.9815034385044266	-0.7777477320575741	0.0	0.9633025409281692	-1.0677085060258407	0.0	1.1548754877916567	-1.0656489256561557	0.0	1.2012187493063013	-1.0299374999522404	0.0	1.548710814382659	-0.8729520264899475	0.0	1.305885497246832	-0.9192044677837747	0.0	1.0463579135673742	-0.7821708916690702	0.0	1.0296399501960696	-1.0638740870914227	0.0	0.9316649700401027	-1.0745228111387997	0.0	1.5001343984164404	-0.851583252089453	0.0	1.4806373281237726	-0.8564575196571722	0.0	0.9010034176539314	-0.9219477539192569	0.0	1.0705287294364607	-0.2563549022823263	0.0	1.140921456658297	-0.05827694699531299	0.0	1.154422008127243	-0.1640331283919039	0.0	0.9964666285041928	-0.29613522395302316	0.0	0.8701335920802268	-0.5096103691216097	0.0	0.9253165512751028	-0.7492113760734631	0.0	1.0969142095786983	-0.3328868634098888	0.0	1.0732345157713101	-0.5366954961479082	0.0	1.0909296282391032	-0.7356969868108764	0.0
204	6.8254681647940085	1.033266744996545	-0.762167173166745	0.0	0.9974452181700248	-0.7760235589653793	0.0	0.9800866710886416	-1.0676202239204373	0.0	1.15487548627708	-1.0656489254217791	0.0	1.201218747463059	-1.0299374998251773	0.0	1.5487108116000183	-0.8729520268162315	0.0	1.305885495120578	-0.919204467811287	0.0	1.0606786692812673	-0.7789827886511828	0.0	1.0409111479917823	-1.0645091438642826	0.0	0.9316644559854153	-1.0745228883362816	0.0	1.5001343957651152	-0.8515832524517672	0.0	1.480637325525149	-0.8564575199918323	0.0	0.9010034168176704	-0.9219477539538193	0.0	1.0587037707468363	-0.25375572099820876	0.0	1.1242041244770198	-0.055119235831316844	0.0	1.139852021779549	-0.16049800457108418	0.0	0.987305610301657	-0.29394827852028	0.0	0.8673934011939894	-0.5069070391726274	0.0	0.9362480344839644	-0.7434118239242229	0.0	1.0891746384603078	-0.3292729071530468	0.0	1.0707611402129125	-0.5325866797177263	0.0	1.0997191812794127	-0.7288120192509958	0.0
205	6.858926342072411	1.0439010027223798	-0.7602302569352264	0.0	1.0122891772343492	-0.7739002815041316	0.0	0.9963272845437025	-1.0667674279975927	0.0	1.1548754839179163	-1.0656489250890377	0.0	1.201218744655903	-1.0299374996317068	0.0	1.5487108073623692	-0.8729520273131103	0.0	1.3058854918825187	-0.9192044678531706	0.0	1.0742019415755018	-0.7756145257927588	0.0	1.0531871730248494	-1.0646629209791831	0.0	0.9316641357154473	-1.074522936096817	0.0	1.5001343917274323	-0.8515832530035323	0.0	1.4806373215677255	-0.8564575205014829	0.0	0.9010034155440295	-0.9219477540064549	0.0	1.046902757610239	-0.2529123113898837	0.0	1.10837410697096	-0.054268183193195534	0.0	1.1255910729143541	-0.15947489799212902	0.0	0.9789141160338711	-0.2931812886045605	0.0	0.8667323939370927	-0.5078420283645916	0.0	0.9500032359361191	-0.7414519667071605	0.0	1.0803882183465314	-0.32658884544685024	0.0	1.064923551804946	-0.5304548602609103	0.0	1.1066378080822397	-0.7257474563443623	0.0
206	6.892384519350812	1.0532086889301429	-0.7583826871723343	0.0	1.0259641816704812	-0.772021108656231	0.0	1.0121757466488068	-1.0654354817606115	0.0	1.154875481054874	-1.0656489247354561	0.0	1.2012187413486608	-1.0299374994037862	0.0	1.5487108023698573	-0.8729520278984941	0.0	1.3058854880676525	-0.9192044679025096	0.0	1.0866488340973168	-0.7727091716494088	0.0	1.0666585300992393	-1.0643573316227393	0.0	0.9316639820700309	-1.0745229588937493	0.0	1.5001343869705035	-0.851583253653585	0.0	1.4806373169053533	-0.856457521101919	0.0	0.9010034140434681	-0.921947754068467	0.0	1.035660188576038	-0.25379807038855884	0.0	1.094063497455287	-0.05551323045153551	0.0	1.1121773321924144	-0.16085271375829152	0.0	0.9715065407796962	-0.29395565359609876	0.0	0.8675890502921141	-0.51179997178871	0.0	0.965124687488283	-0.7425006727654786	0.0	1.0713913381368747	-0.3251295934342653	0.0	1.0571696719283528	-0.5302871172898714	0.0	1.112134007737977	-0.7264364427131191	0.0
207	6.925842696629214	1.0617348874727672	-0.7570248599701811	0.0	1.0383860800050198	-0.7706160783516196	0.0	1.0277495204868443	-1.0640805157828621	0.0	1.1548754788426312	-1.0656489245624778	0.0	1.201218738991765	-1.0299374992413646	0.0	1.54871079881198	-0.8729520283156618	0.0	1.3058854853490145	-0.919204467937669	0.0	1.0980186887799934	-0.7704919156739335	0.0	1.0814067175855229	-1.0637229929874834	0.0	0.9316639402831117	-1.0745229657160047	0.0	1.5001343835805112	-0.8515832541168405	0.0	1.480637313582746	-0.8564575215298154	0.0	0.9010034129740893	-0.9219477541126596	0.0	1.0254364459052692	-0.2562731071486252	0.0	1.0816323483938135	-0.0583471606593967	0.0	1.1000144934574838	-0.16412865374714194	0.0	0.9651793633291865	-0.2962602681721054	0.0	0.8695565067301344	-0.518056889326106	0.0	0.9804929590537629	-0.745688111849626	0.0	1.0630784098391333	-0.325162399987568	0.0	1.0495182055468204	-0.5319587941119416	0.0	1.1172120574698847	-0.7301611284711851	0.0
208	6.959300873907616	1.0696375349853093	-0.7561171202691229	0.0	1.0492212370339435	-0.769557158063924	0.0	1.0428346495833736	-1.062977985499352	0.0	1.154875479652951	-1.0656489249400614	0.0	1.201218740477631	-1.0299374993437658	0.0	1.548710801055012	-0.872952028052658	0.0	1.305885487062949	-0.9192044679154999	0.0	1.1082393230805592	-0.7688046039121748	0.0	1.0971478354466953	-1.0628986773102271	0.0	0.9316639599096854	-1.0745229652548662	0.0	1.500134385717697	-0.851583253824786	0.0	1.4806373156774495	-0.8564575212600524	0.0	0.9010034136482533	-0.9219477540847989	0.0	1.0166293813075329	-0.2600059705120386	0.0	1.071233123090079	-0.062098122957624104	0.0	1.0893673876996774	-0.16849976435292655	0.0	0.9598896561963066	-0.29992549828414833	0.0	0.8723526937635498	-0.5259174053171004	0.0	0.9952500631485766	-0.749991844978359	0.0	1.0561662407364074	-0.32670495494815804	0.0	1.0439981107175629	-0.5351866724934006	0.0	1.1229589189596414	-0.735539539581275	0.0
